<?xml version="1.0" standalone="no"?>
<!DOCTYPE svg PUBLIC "-//W3C//DTD SVG 1.1//EN" "http://www.w3.org/Graphics/SVG/1.1/DTD/svg11.dtd">
<svg xmlns="http://www.w3.org/2000/svg" id="Layer_2" viewBox="0 0 298.03 263.87" width="298.0299987792969" height="263.8699951171875"><defs><style>.cls-1{fill:none;}.cls-2{fill:#38c5f0;}</style></defs><g id="Layer_1-2"><path class="cls-1" d="m138.7,98.37H19.1v146.4h146.4v-99.3"/><path class="cls-2" d="m165.5,244.77H19.1V98.37h119.6c5.3-6.6,10.6-13,16-19.1H5.3c-2.9,0-5.3,2.4-5.3,5.3v174c0,2.9,2.4,5.3,5.3,5.3h174c2.9,0,5.3-2.4,5.3-5.3V121.37c-6.7,7.8-13,15.8-19.1,24.1v99.3h0Z"/><path class="cls-2" d="m287.7,5.07c-1.8-2.1-3.7-3.8-6.4-4.6-3.8-1.1-9.2-.4-18.3,3.7-1.3.6-2.6,1.2-3.9,1.8-.5.2-1,.5-1.6.8-.8.4-1.7.8-2.5,1.3-1.2.6-2.5,1.3-3.7,1.9-.1.1-.2.1-.4.2C158.7,58.77,97,174.17,96.9,174.37l-.6-1-13.1-22.1-23.3-38.9c-1.3-2.3-2.6-4-4-5.3-1.1-1-2.2-1.7-3.3-2.2-3.3-1.3-6.7-.4-10.1,1.6-4.8,2.9-9.7,8.1-14.1,13.2-1.2,1.4-1.8,3.2-1.7,5,0,0-.2,1.2,3,6.5,3.5,5.7,7.2,12.2,11,19,.7,1.3,1.5,2.6,2.2,4,1.3,2.4,2.6,4.9,4,7.3,4.4,8.1,8.7,16.4,12.6,24.2,7.8,15.2,14.3,28.5,17.4,35,.8,2.1,1.3,3.2,1.3,3.2,2.1,4.4,4.1,7.7,6.2,10.2,14.7,17.8,27.8-8.9,27.8-8.9C163.9,97.87,260.2,42.87,290.5,26.87c2.4-1.3,4.4-2.3,5.9-3.1,6.1-3-6.7-16.4-8.7-18.7h0Z"/></g></svg>