<?xml version="1.0" standalone="no"?>
<!DOCTYPE svg PUBLIC "-//W3C//DTD SVG 1.1//EN" "http://www.w3.org/Graphics/SVG/1.1/DTD/svg11.dtd">
<svg xmlns="http://www.w3.org/2000/svg" id="Layer_1" data-name="Layer 1" viewBox="0 0 100.45 106.81" width="100.44999694824219" height="106.80999755859375"><defs><style>.cls-1{fill:#38b1ea;}</style></defs><path class="cls-1" d="M14.31,16.11a6,6,0,0,0-6,6v40a6,6,0,0,0,6,6h11l-2.06,20,20.06-20h29a6,6,0,0,0,6-6v-40a6,6,0,0,0-6-6Zm66,34v12a8,8,0,0,1-8,8h-19v3.06a4,4,0,0,0,4,3.94H73.12l11.19,11-1.94-11h4a4,4,0,0,0,4-3.94V54a3.94,3.94,0,0,0-4-3.93Z"/></svg>